<svg width="244" height="37" viewBox="0 0 244 37" fill="none" xmlns="http://www.w3.org/2000/svg">
<path d="M170.985 0L170.985 0.071002C170.985 3.38575 168.298 6.07289 164.983 6.07289L134.939 6.07289L134.939 6.00189C134.939 2.68714 137.627 -1.36871e-06 140.941 -1.2327e-06L170.985 0Z" fill="#F75936"/>
<path d="M12.9978 3.8345V29.1689H8.66519V3.8345H12.9978ZM20.9496 3.8345V7.3145H0.783V3.8345H20.9496ZM26.8308 13.9265V29.1689H22.6374V10.3421H26.6394L26.8308 13.9265ZM32.5902 10.2203L32.5554 14.1179C32.3002 14.0715 32.0218 14.0367 31.7202 14.0135C31.4302 13.9903 31.1402 13.9787 30.8502 13.9787C30.131 13.9787 29.4988 14.0831 28.9536 14.2919C28.4084 14.4891 27.9502 14.7791 27.579 15.1619C27.2194 15.5331 26.941 15.9855 26.7438 16.5191C26.5466 17.0527 26.4306 17.6501 26.3958 18.3113L25.4388 18.3809C25.4388 17.1977 25.5548 16.1015 25.7868 15.0923C26.0188 14.0831 26.3668 13.1957 26.8308 12.4301C27.3064 11.6645 27.898 11.0671 28.6056 10.6379C29.3248 10.2087 30.1542 9.9941 31.0938 9.9941C31.349 9.9941 31.6216 10.0173 31.9116 10.0637C32.2132 10.1101 32.4394 10.1623 32.5902 10.2203ZM43.1694 29.5169C41.7774 29.5169 40.5188 29.2907 39.3936 28.8383C38.28 28.3743 37.3288 27.7305 36.54 26.9069C35.7628 26.0833 35.1654 25.1147 34.7478 24.0011C34.3302 22.8875 34.1214 21.6869 34.1214 20.3993V19.7033C34.1214 18.2301 34.336 16.8961 34.7652 15.7013C35.1944 14.5065 35.7918 13.4857 36.5574 12.6389C37.323 11.7805 38.2278 11.1251 39.2718 10.6727C40.3158 10.2203 41.4468 9.9941 42.6648 9.9941C44.0104 9.9941 45.1878 10.2203 46.197 10.6727C47.2062 11.1251 48.0414 11.7631 48.7026 12.5867C49.3754 13.3987 49.8742 14.3673 50.199 15.4925C50.5354 16.6177 50.7036 17.8589 50.7036 19.2161V21.0083H36.1572V17.9981H46.5624V17.6675C46.5392 16.9135 46.3884 16.2059 46.11 15.5447C45.8432 14.8835 45.4314 14.3499 44.8746 13.9439C44.3178 13.5379 43.5754 13.3349 42.6474 13.3349C41.9514 13.3349 41.3308 13.4857 40.7856 13.7873C40.252 14.0773 39.8054 14.5007 39.4458 15.0575C39.0862 15.6143 38.8078 16.2871 38.6106 17.0759C38.425 17.8531 38.3322 18.7289 38.3322 19.7033V20.3993C38.3322 21.2229 38.4424 21.9885 38.6628 22.6961C38.8948 23.3921 39.2312 24.0011 39.672 24.5231C40.1128 25.0451 40.6464 25.4569 41.2728 25.7585C41.8992 26.0485 42.6126 26.1935 43.413 26.1935C44.4222 26.1935 45.3212 25.9905 46.11 25.5845C46.8988 25.1785 47.5832 24.6043 48.1632 23.8619L50.373 26.0021C49.967 26.5937 49.4392 27.1621 48.7896 27.7073C48.14 28.2409 47.3454 28.6759 46.4058 29.0123C45.4778 29.3487 44.399 29.5169 43.1694 29.5169ZM58.1334 14.3615V29.1689H53.94V10.3421H57.8898L58.1334 14.3615ZM57.3852 19.0595L56.028 19.0421C56.0396 17.7081 56.2252 16.4843 56.5848 15.3707C56.956 14.2571 57.4664 13.3001 58.116 12.4997C58.7772 11.6993 59.566 11.0845 60.4824 10.6553C61.3988 10.2145 62.4196 9.9941 63.5448 9.9941C64.4496 9.9941 65.2674 10.1217 65.9982 10.3769C66.7406 10.6205 67.3728 11.0207 67.8948 11.5775C68.4284 12.1343 68.8344 12.8593 69.1128 13.7525C69.3912 14.6341 69.5304 15.7187 69.5304 17.0063V29.1689H65.3196V16.9889C65.3196 16.0841 65.1862 15.3707 64.9194 14.8487C64.6642 14.3151 64.2872 13.9381 63.7884 13.7177C63.3012 13.4857 62.6922 13.3697 61.9614 13.3697C61.2422 13.3697 60.5984 13.5205 60.03 13.8221C59.4616 14.1237 58.9802 14.5355 58.5858 15.0575C58.203 15.5795 57.9072 16.1827 57.6984 16.8671C57.4896 17.5515 57.3852 18.2823 57.3852 19.0595ZM85.2947 25.2713V2.4425H89.5055V29.1689H85.6949L85.2947 25.2713ZM73.0452 19.9643V19.5989C73.0452 18.1721 73.2134 16.8729 73.5498 15.7013C73.8862 14.5181 74.3734 13.5031 75.0114 12.6563C75.6493 11.7979 76.4265 11.1425 77.3429 10.6901C78.2593 10.2261 79.2917 9.9941 80.4401 9.9941C81.5769 9.9941 82.5745 10.2145 83.4329 10.6553C84.2913 11.0961 85.0221 11.7283 85.6253 12.5519C86.2285 13.3639 86.7099 14.3383 87.0695 15.4751C87.4291 16.6003 87.6843 17.8531 87.8351 19.2335V20.3993C87.6843 21.7449 87.4291 22.9745 87.0695 24.0881C86.7099 25.2017 86.2285 26.1645 85.6253 26.9765C85.0221 27.7885 84.2855 28.4149 83.4155 28.8557C82.5571 29.2965 81.5537 29.5169 80.4053 29.5169C79.2685 29.5169 78.2419 29.2791 77.3255 28.8035C76.4207 28.3279 75.6493 27.6609 75.0114 26.8025C74.3734 25.9441 73.8862 24.9349 73.5498 23.7749C73.2134 22.6033 73.0452 21.3331 73.0452 19.9643ZM77.2385 19.5989V19.9643C77.2385 20.8227 77.3139 21.6231 77.4647 22.3655C77.6271 23.1079 77.8765 23.7633 78.2129 24.3317C78.5493 24.8885 78.9843 25.3293 79.5179 25.6541C80.0631 25.9673 80.7127 26.1239 81.4667 26.1239C82.4179 26.1239 83.2009 25.9151 83.8157 25.4975C84.4305 25.0799 84.9119 24.5173 85.2599 23.8097C85.6195 23.0905 85.8631 22.2901 85.9907 21.4085V18.2591C85.9211 17.5747 85.7761 16.9367 85.5557 16.3451C85.3469 15.7535 85.0627 15.2373 84.7031 14.7965C84.3435 14.3441 83.8969 13.9961 83.3633 13.7525C82.8413 13.4973 82.2207 13.3697 81.5015 13.3697C80.7359 13.3697 80.0863 13.5321 79.5527 13.8569C79.0191 14.1817 78.5783 14.6283 78.2303 15.1967C77.8939 15.7651 77.6445 16.4263 77.4821 17.1803C77.3197 17.9343 77.2385 18.7405 77.2385 19.5989ZM104.452 24.0707C104.452 23.6531 104.348 23.2761 104.139 22.9397C103.93 22.5917 103.53 22.2785 102.938 22.0001C102.358 21.7217 101.5 21.4665 100.363 21.2345C99.3655 21.0141 98.4491 20.7531 97.6139 20.4515C96.7903 20.1383 96.0827 19.7613 95.4911 19.3205C94.8995 18.8797 94.4413 18.3577 94.1165 17.7545C93.7917 17.1513 93.6293 16.4553 93.6293 15.6665C93.6293 14.9009 93.7975 14.1759 94.1339 13.4915C94.4703 12.8071 94.9517 12.2039 95.5781 11.6819C96.2045 11.1599 96.9643 10.7481 97.8575 10.4465C98.7623 10.1449 99.7715 9.9941 100.885 9.9941C102.463 9.9941 103.814 10.2609 104.939 10.7945C106.076 11.3165 106.946 12.0299 107.549 12.9347C108.153 13.8279 108.454 14.8371 108.454 15.9623H104.261C104.261 15.4635 104.133 14.9995 103.878 14.5703C103.634 14.1295 103.263 13.7757 102.764 13.5089C102.266 13.2305 101.639 13.0913 100.885 13.0913C100.166 13.0913 99.5685 13.2073 99.0929 13.4393C98.6289 13.6597 98.2809 13.9497 98.0489 14.3093C97.8285 14.6689 97.7183 15.0633 97.7183 15.4925C97.7183 15.8057 97.7763 16.0899 97.8923 16.3451C98.0199 16.5887 98.2287 16.8149 98.5187 17.0237C98.8087 17.2209 99.2031 17.4065 99.7019 17.5805C100.212 17.7545 100.85 17.9227 101.616 18.0851C103.054 18.3867 104.29 18.7753 105.322 19.2509C106.366 19.7149 107.167 20.3181 107.723 21.0605C108.28 21.7913 108.559 22.7193 108.559 23.8445C108.559 24.6797 108.379 25.4453 108.019 26.1413C107.671 26.8257 107.161 27.4231 106.488 27.9335C105.815 28.4323 105.009 28.8209 104.069 29.0993C103.141 29.3777 102.097 29.5169 100.937 29.5169C99.2321 29.5169 97.7879 29.2153 96.6047 28.6121C95.4215 27.9973 94.5225 27.2143 93.9077 26.2631C93.3045 25.3003 93.0029 24.3027 93.0029 23.2703H97.0571C97.1035 24.0475 97.3181 24.6681 97.7009 25.1321C98.0953 25.5845 98.5825 25.9151 99.1625 26.1239C99.7541 26.3211 100.363 26.4197 100.99 26.4197C101.744 26.4197 102.376 26.3211 102.886 26.1239C103.397 25.9151 103.785 25.6367 104.052 25.2887C104.319 24.9291 104.452 24.5231 104.452 24.0707Z" fill="#F75936"/>
<path d="M122.009 16.9889H114.875L114.84 15.1793H120.982C122.235 15.1793 123.302 14.9995 124.184 14.6399C125.065 14.2803 125.732 13.7467 126.185 13.0391C126.649 12.3199 126.881 11.4383 126.881 10.3943C126.881 9.3271 126.655 8.4455 126.202 7.7495C125.75 7.0419 125.071 6.5199 124.166 6.1835C123.262 5.8471 122.125 5.6789 120.756 5.6789H115.432V29.1689H113.291V3.8345H120.756C122.044 3.8345 123.198 3.9621 124.219 4.2173C125.239 4.4725 126.109 4.8727 126.829 5.4179C127.548 5.9631 128.093 6.6533 128.464 7.4885C128.847 8.3121 129.038 9.2981 129.038 10.4465C129.038 11.4905 128.806 12.4359 128.342 13.2827C127.878 14.1179 127.223 14.8023 126.376 15.3359C125.541 15.8579 124.538 16.1827 123.366 16.3103L122.009 16.9889ZM121.852 29.1689H114.196L115.292 27.3419H121.852C123.105 27.3419 124.172 27.1331 125.054 26.7155C125.947 26.2863 126.631 25.6773 127.107 24.8885C127.583 24.0997 127.82 23.1601 127.82 22.0697C127.82 21.1069 127.612 20.2427 127.194 19.4771C126.776 18.7115 126.138 18.1083 125.28 17.6675C124.422 17.2151 123.331 16.9889 122.009 16.9889H117.572L117.607 15.1793H123.888L124.271 15.8231C125.408 15.9391 126.399 16.2929 127.246 16.8845C128.105 17.4645 128.766 18.2011 129.23 19.0943C129.705 19.9875 129.943 20.9677 129.943 22.0349C129.943 23.5661 129.601 24.8653 128.917 25.9325C128.244 26.9881 127.298 27.7943 126.08 28.3511C124.874 28.8963 123.465 29.1689 121.852 29.1689ZM133.51 20.0513V19.4771C133.51 18.1083 133.707 16.8439 134.102 15.6839C134.496 14.5239 135.059 13.5205 135.79 12.6737C136.532 11.8269 137.419 11.1715 138.452 10.7075C139.484 10.2319 140.633 9.9941 141.897 9.9941C143.173 9.9941 144.327 10.2319 145.36 10.7075C146.392 11.1715 147.279 11.8269 148.022 12.6737C148.764 13.5205 149.333 14.5239 149.727 15.6839C150.121 16.8439 150.319 18.1083 150.319 19.4771V20.0513C150.319 21.4201 150.121 22.6845 149.727 23.8445C149.333 24.9929 148.764 25.9905 148.022 26.8373C147.291 27.6841 146.409 28.3453 145.377 28.8209C144.345 29.2849 143.196 29.5169 141.932 29.5169C140.656 29.5169 139.502 29.2849 138.469 28.8209C137.437 28.3453 136.549 27.6841 135.807 26.8373C135.065 25.9905 134.496 24.9929 134.102 23.8445C133.707 22.6845 133.51 21.4201 133.51 20.0513ZM135.581 19.4771V20.0513C135.581 21.0837 135.72 22.0639 135.998 22.9919C136.277 23.9083 136.683 24.7261 137.216 25.4453C137.75 26.1529 138.411 26.7097 139.2 27.1157C139.989 27.5217 140.899 27.7247 141.932 27.7247C142.953 27.7247 143.852 27.5217 144.629 27.1157C145.418 26.7097 146.079 26.1529 146.612 25.4453C147.146 24.7261 147.546 23.9083 147.813 22.9919C148.091 22.0639 148.231 21.0837 148.231 20.0513V19.4771C148.231 18.4563 148.091 17.4877 147.813 16.5713C147.546 15.6549 147.14 14.8371 146.595 14.1179C146.061 13.3987 145.4 12.8303 144.611 12.4127C143.823 11.9951 142.918 11.7863 141.897 11.7863C140.876 11.7863 139.971 11.9951 139.183 12.4127C138.405 12.8303 137.744 13.3987 137.199 14.1179C136.665 14.8371 136.259 15.6549 135.981 16.5713C135.714 17.4877 135.581 18.4563 135.581 19.4771ZM153.485 20.0513V19.4771C153.485 18.1083 153.683 16.8439 154.077 15.6839C154.471 14.5239 155.034 13.5205 155.765 12.6737C156.507 11.8269 157.394 11.1715 158.427 10.7075C159.459 10.2319 160.608 9.9941 161.872 9.9941C163.148 9.9941 164.302 10.2319 165.335 10.7075C166.367 11.1715 167.254 11.8269 167.997 12.6737C168.739 13.5205 169.308 14.5239 169.702 15.6839C170.096 16.8439 170.294 18.1083 170.294 19.4771V20.0513C170.294 21.4201 170.096 22.6845 169.702 23.8445C169.308 24.9929 168.739 25.9905 167.997 26.8373C167.266 27.6841 166.384 28.3453 165.352 28.8209C164.32 29.2849 163.171 29.5169 161.907 29.5169C160.631 29.5169 159.477 29.2849 158.444 28.8209C157.412 28.3453 156.524 27.6841 155.782 26.8373C155.04 25.9905 154.471 24.9929 154.077 23.8445C153.683 22.6845 153.485 21.4201 153.485 20.0513ZM155.556 19.4771V20.0513C155.556 21.0837 155.695 22.0639 155.973 22.9919C156.252 23.9083 156.658 24.7261 157.191 25.4453C157.725 26.1529 158.386 26.7097 159.175 27.1157C159.964 27.5217 160.874 27.7247 161.907 27.7247C162.928 27.7247 163.827 27.5217 164.604 27.1157C165.393 26.7097 166.054 26.1529 166.587 25.4453C167.121 24.7261 167.521 23.9083 167.788 22.9919C168.066 22.0639 168.206 21.0837 168.206 20.0513V19.4771C168.206 18.4563 168.066 17.4877 167.788 16.5713C167.521 15.6549 167.115 14.8371 166.57 14.1179C166.036 13.3987 165.375 12.8303 164.586 12.4127C163.798 11.9951 162.893 11.7863 161.872 11.7863C160.851 11.7863 159.946 11.9951 159.158 12.4127C158.38 12.8303 157.719 13.3987 157.174 14.1179C156.64 14.8371 156.234 15.6549 155.956 16.5713C155.689 17.4877 155.556 18.4563 155.556 19.4771ZM176.679 2.4425V29.1689H174.609V2.4425H176.679ZM188.494 10.3421L179.69 19.0769L175.949 22.6961L175.635 20.6603L178.646 17.4065L185.867 10.3421H188.494ZM186.684 29.1689L178.82 19.3901L179.968 17.5979L189.19 29.1689H186.684ZM194.393 10.3421V29.1689H192.322V10.3421H194.393ZM191.957 4.8959C191.957 4.5015 192.078 4.1709 192.322 3.9041C192.577 3.6257 192.925 3.4865 193.366 3.4865C193.807 3.4865 194.155 3.6257 194.41 3.9041C194.677 4.1709 194.81 4.5015 194.81 4.8959C194.81 5.2787 194.677 5.6093 194.41 5.8877C194.155 6.1545 193.807 6.2879 193.366 6.2879C192.925 6.2879 192.577 6.1545 192.322 5.8877C192.078 5.6093 191.957 5.2787 191.957 4.8959ZM202.153 14.3615V29.1689H200.082V10.3421H202.066L202.153 14.3615ZM201.683 18.5897L200.761 18.0677C200.831 16.9541 201.057 15.9101 201.44 14.9357C201.822 13.9613 202.339 13.1029 202.988 12.3605C203.649 11.6181 204.421 11.0381 205.302 10.6205C206.196 10.2029 207.182 9.9941 208.26 9.9941C209.2 9.9941 210.041 10.1217 210.783 10.3769C211.526 10.6321 212.158 11.0381 212.68 11.5949C213.202 12.1517 213.596 12.8651 213.863 13.7351C214.142 14.6051 214.281 15.6665 214.281 16.9193V29.1689H212.193V16.9019C212.193 15.6027 212.013 14.5877 211.653 13.8569C211.294 13.1145 210.783 12.5867 210.122 12.2735C209.461 11.9603 208.678 11.8037 207.773 11.8037C206.776 11.8037 205.9 12.0241 205.146 12.4649C204.403 12.8941 203.777 13.4567 203.267 14.1527C202.768 14.8371 202.385 15.5737 202.118 16.3625C201.851 17.1397 201.706 17.8821 201.683 18.5897ZM232.064 10.3421H233.995V28.8383C233.995 30.4739 233.682 31.8775 233.055 33.0491C232.441 34.2207 231.565 35.1197 230.428 35.7461C229.303 36.3725 227.975 36.6857 226.443 36.6857C225.666 36.6857 224.866 36.5639 224.042 36.3203C223.23 36.0883 222.459 35.7287 221.728 35.2415C221.009 34.7659 220.394 34.1743 219.884 33.4667L221.049 32.1965C221.815 33.1245 222.633 33.8031 223.503 34.2323C224.373 34.6731 225.312 34.8935 226.322 34.8935C227.516 34.8935 228.526 34.6557 229.349 34.1801C230.184 33.7045 230.817 33.0201 231.246 32.1269C231.687 31.2337 231.907 30.1607 231.907 28.9079V14.4833L232.064 10.3421ZM218.84 19.9469V19.5815C218.84 18.1199 219.002 16.8033 219.327 15.6317C219.663 14.4485 220.145 13.4393 220.771 12.6041C221.397 11.7573 222.157 11.1135 223.05 10.6727C223.955 10.2203 224.976 9.9941 226.113 9.9941C227.203 9.9941 228.172 10.1739 229.019 10.5335C229.865 10.8931 230.596 11.4093 231.211 12.0821C231.826 12.7549 232.319 13.5553 232.69 14.4833C233.073 15.4113 233.351 16.4437 233.525 17.5805V22.2263C233.386 23.2935 233.131 24.2737 232.76 25.1669C232.388 26.0485 231.895 26.8199 231.281 27.4811C230.666 28.1307 229.923 28.6353 229.053 28.9949C228.195 29.3429 227.203 29.5169 226.078 29.5169C224.953 29.5169 223.944 29.2849 223.05 28.8209C222.157 28.3569 221.397 27.7015 220.771 26.8547C220.145 25.9963 219.663 24.9813 219.327 23.8097C219.002 22.6381 218.84 21.3505 218.84 19.9469ZM220.928 19.5815V19.9469C220.928 21.0489 221.038 22.0697 221.258 23.0093C221.479 23.9489 221.815 24.7667 222.267 25.4627C222.72 26.1587 223.294 26.7039 223.99 27.0983C224.686 27.4927 225.504 27.6899 226.443 27.6899C227.638 27.6899 228.642 27.4637 229.454 27.0113C230.266 26.5473 230.909 25.9383 231.385 25.1843C231.861 24.4187 232.209 23.5835 232.429 22.6787V17.2673C232.301 16.6525 232.104 16.0261 231.837 15.3881C231.582 14.7501 231.223 14.1643 230.759 13.6307C230.306 13.0855 229.726 12.6505 229.019 12.3257C228.323 11.9893 227.476 11.8211 226.478 11.8211C225.527 11.8211 224.698 12.0183 223.99 12.4127C223.294 12.8071 222.72 13.3581 222.267 14.0657C221.815 14.7617 221.479 15.5795 221.258 16.5191C221.038 17.4587 220.928 18.4795 220.928 19.5815Z" fill="#07232C"/>
</svg>
